<svg width="48" height="48" viewBox="0 0 48 48" xmlns="http://www.w3.org/2000/svg">
  <defs>
    <linearGradient id="gamepad-gradient" x1="0%" y1="0%" x2="100%" y2="100%">
      <stop offset="0%" style="stop-color:#007AFF"/>
      <stop offset="100%" style="stop-color:#FF3B30"/>
    </linearGradient>
    <filter id="shadow" x="-20%" y="-20%" width="140%" height="140%">
      <feGaussianBlur in="SourceAlpha" stdDeviation="1"/>
      <feOffset dx="0" dy="1"/>
      <feComponentTransfer>
        <feFuncA type="linear" slope="0.3"/>
      </feComponentTransfer>
      <feMerge>
        <feMergeNode/>
        <feMergeNode in="SourceGraphic"/>
      </feMerge>
    </filter>
  </defs>
  
  <!-- Hexagonal Background -->
  <path d="M24 4L40 14V34L24 44L8 34V14L24 4Z" fill="url(#gamepad-gradient)" filter="url(#shadow)"/>
  
  <!-- Gamepad Body -->
  <path d="M16 18H32C33.1 18 34 18.9 34 20V28C34 29.1 33.1 30 32 30H16C14.9 30 14 29.1 14 28V20C14 18.9 14.9 18 16 18Z" fill="white" opacity="0.9"/>
  
  <!-- D-Pad -->
  <rect x="17" y="22" width="2" height="4" rx="1" fill="#1D1D1F"/>
  <rect x="16" y="23" width="4" height="2" rx="1" fill="#1D1D1F"/>
  
  <!-- Buttons -->
  <circle cx="29" cy="24" r="1.5" fill="#FF3B30"/>
  <circle cx="31" cy="22" r="1.5" fill="#007AFF"/>
  
  <!-- Small Decorative Squares -->
  <rect x="10" y="14" width="2" height="2" fill="#007AFF" opacity="0.8"/>
  <rect x="36" y="32" width="2" height="2" fill="#FF3B30" opacity="0.8"/>
</svg>